# xmcd
#
# Track frame offsets:
#	150
#	12940
#	25572
#	38970
#	54395
#	100489
#	113009
#	134180
#	146565
#	159834
#	170266
#	179717
#	215951
#	225099
#	237922
#	250119
#	259849
#	273213
#	287085
#	301551
#
# Disc length: 4217
#
# Revision: 2
# Processed by: cddbd v1.5.1PL0 Copyright (c) Steve Scherf et al.
# Submitted via: EasyCDDAExtractor 4.6.0.1
# Normalized: r0:TDELIM( - ),TSWAP
#
DISCID=11107714
DTITLE=Various Artist - Guitar Masters Disc 2
DYEAR=1900
DGENRE=
TTITLE0=Fleetwood Mac - Man Of The World
TTITLE1=Eric Clapton And Jimmy Page - Freight Loader
TTITLE2=Buddy Guy - This Is The End
TTITLE3=Muddy Waters - Country Blues
TTITLE4=Albert King - Blues At Sunrise (live)
TTITLE5=Lonnie Johnsoon - Mister Johnson's Swing
TTITLE6=Calvin Leavy - Cummins Prison Farm
TTITLE7=Earl Hooker - Blue Guitar
TTITLE8=Otis Rush - Checkin' On My Baby
TTITLE9=Eric Clapton - West Coast Idea
TTITLE10=Jimmy Page - LA Breakdown
TTITLE11=Jimi Hendrix - Red House (live)
TTITLE12=Memphis Slim - Steppin' Out
TTITLE13=JB Lenoir - Mojo Boogie
TTITLE14=Lightenin' Hopkins - Lonesome Dog BLues
TTITLE15=Lonnie 'Guitar Junior' Brooks - Tell On Me Baby
TTITLE16=Magic Sam - All Your Love
TTITLE17=Eric Clapton and Jimmy Page - Draggin' My Tail
TTITLE18=Roy Buchanan - Peter Gunn (live)
TTITLE19=T Bone Walker - I Got A Break, Baby
EXTD=
EXTT0=
EXTT1=
EXTT2=
EXTT3=
EXTT4=
EXTT5=
EXTT6=
EXTT7=
EXTT8=
EXTT9=
EXTT10=
EXTT11=
EXTT12=
EXTT13=
EXTT14=
EXTT15=
EXTT16=
EXTT17=
EXTT18=
EXTT19=
PLAYORDER=
